<svg xmlns="http://www.w3.org/2000/svg" x="0px" y="0px"
width="40" height="40"
viewBox="0 0 172 172"
style=" fill:#000000;"><g fill="none" fill-rule="nonzero" stroke="none" stroke-width="1" stroke-linecap="butt" stroke-linejoin="miter" stroke-miterlimit="10" stroke-dasharray="" stroke-dashoffset="0" font-family="none" font-weight="none" font-size="none" text-anchor="none" style="mix-blend-mode: normal"><path d="M0,172v-172h172v172z" fill="none"></path><g fill="#f1c40f"><path d="M83.67993,8.13599c-1.44856,-0.13438 -2.79664,0.91287 -2.9552,2.38831l-0.56689,5.34351c-0.15587,1.47544 0.91287,2.80189 2.38831,2.96045c0.09675,0.00806 0.19195,0.0105 0.2887,0.0105c1.35719,0 2.51869,-1.02805 2.6665,-2.40405l0.5669,-5.34351c0.15587,-1.47544 -0.91287,-2.79664 -2.38831,-2.9552zM68.47351,11.21191c-0.34665,0.04216 -0.69056,0.1505 -1.01306,0.33594c-1.28731,0.73906 -1.73113,2.38175 -0.99206,3.66907l2.677,4.66113c0.49719,0.86538 1.398,1.349 2.33057,1.349c0.45419,0 0.91656,-0.11506 1.3385,-0.35693c1.28731,-0.73906 1.73113,-2.38175 0.99207,-3.66907l-2.677,-4.66113c-0.5543,-0.96347 -1.61607,-1.45448 -2.65601,-1.328zM96.88647,14.16711c-0.68666,0.03662 -1.3584,0.33871 -1.8529,0.89233l-3.59033,3.99976c-0.99169,1.10456 -0.89985,2.80336 0.20471,3.79504c0.51063,0.46225 1.15554,0.68762 1.79517,0.68762c0.73638,0 1.46775,-0.30108 1.99988,-0.89233l3.59033,-3.99976c0.99169,-1.10456 0.89985,-2.80336 -0.20471,-3.79504c-0.55362,-0.49584 -1.25548,-0.72424 -1.94214,-0.68762zM124.4596,23.18494c-0.34137,0.03021 -0.68292,0.0902 -1.02356,0.18896l-41.60376,12.08325c-0.40915,0.11875 -0.78245,0.29689 -1.13904,0.49866v-1.16003c0.11019,-2.83262 -2.01248,-5.27128 -4.83435,-5.55347l-43.10498,-4.32519c-2.82188,-0.26875 -5.38567,1.68993 -5.82642,4.38818l-10.65027,53.12012c-0.01881,0.09137 -0.02868,0.17901 -0.03674,0.2677c-1.45721,14.92338 7.56527,28.49149 21.03284,33.45203l-2.82923,28.20825l-8.50867,0.5564c-5.96625,0.0645 -10.91448,4.5876 -11.51111,10.52429c-0.07256,0.70681 0.14164,1.41744 0.59314,1.96838c0.44881,0.55094 1.10141,0.90119 1.81091,0.97107l48.13354,4.8291c0.09137,0.01075 0.18426,0.0105 0.27295,0.0105c1.36525,0 2.532,-1.03574 2.67175,-2.4198c0.59663,-5.93669 -3.3545,-11.35141 -9.04932,-12.56616l-8.37219,-2.26758l2.82923,-28.19776c14.18388,-2.18998 25.7223,-13.70039 27.25818,-28.61243c0.00806,-0.09137 0.0105,-0.18158 0.0105,-0.27295l0.06824,-33.35754l7.36963,39.43591c0.01344,0.09137 0.03087,0.1817 0.05774,0.2677c4.12531,14.06906 17.06222,23.22693 31.04797,23.22693c0.31497,0 0.63406,-0.02215 0.95007,-0.03149l7.90503,27.20044l-7.68457,3.69531c-5.51206,2.28706 -8.40856,8.3297 -6.745,14.06213c0.20156,0.68531 0.66251,1.2622 1.28601,1.6062c0.40044,0.22037 0.8477,0.33594 1.29651,0.33594c0.25262,0 0.50092,-0.03767 0.74011,-0.11023l46.45911,-13.49524c1.42706,-0.41387 2.24578,-1.90351 1.83191,-3.32788c-1.66625,-5.73244 -7.32381,-9.28271 -13.08581,-8.28296l-8.61365,1.01831l-7.91028,-27.22144c12.34606,-7.32329 18.76206,-22.29998 14.61853,-36.71167c-0.02687,-0.086 -0.0543,-0.17389 -0.08923,-0.2572l-20.09326,-50.20691c-0.8348,-2.3351 -3.14288,-3.7493 -5.53247,-3.53784zM124.96875,28.63342l7.98901,19.96204l-17.66821,5.13355c-1.42706,0.41387 -2.24579,1.90351 -1.83191,3.32788c0.34131,1.17713 1.41614,1.94214 2.58252,1.94214c0.24725,0 0.49542,-0.03767 0.74536,-0.11023l18.06714,-5.24377c0.03764,-0.01092 0.06295,-0.0401 0.09973,-0.05249l10.08862,25.21106c4.00975,14.20613 -4.23139,29.0827 -18.42407,33.20532l-0.06299,0.01575c-14.17649,4.08292 -29.063,-4.06182 -33.27881,-18.18787l-9.9469,-53.2146h0.00525zM32.21326,30.27637l43.10498,4.31995v0.09448l-0.11023,54.0387c-1.58294,14.67913 -14.76701,25.40586 -29.48376,23.92505c-14.70331,-1.47275 -25.51332,-14.60467 -24.15076,-29.3053l5.33826,-26.62305c0.03751,0.00534 0.06693,0.02769 0.10498,0.03149l18.71802,1.87915c0.09137,0.01075 0.18426,0.0105 0.27295,0.0105c1.36525,0 2.53469,-1.03305 2.67175,-2.4198c0.14781,-1.47812 -0.93118,-2.79689 -2.4093,-2.9447l-18.30335,-1.83191zM56.96765,54.35889c-1.47544,-0.1505 -2.78895,0.93387 -2.93945,2.4093c-0.14781,1.47812 0.92593,2.79689 2.40405,2.9447l10.69751,1.0708c0.09137,0.01075 0.18426,0.0105 0.27295,0.0105c1.36256,0 2.532,-1.03305 2.67175,-2.4198c0.14781,-1.47812 -0.93118,-2.79164 -2.4093,-2.93945zM106.02502,56.63696c-0.34623,-0.04107 -0.70622,-0.01356 -1.0603,0.08923l-10.31958,2.99719c-1.42706,0.41388 -2.25103,1.90876 -1.83716,3.33313c0.34131,1.17713 1.41615,1.93689 2.58252,1.93689c0.24725,0 0.50336,-0.03242 0.75061,-0.10498l10.31958,-3.00244c1.42706,-0.41388 2.25103,-1.90351 1.83716,-3.32788c-0.31041,-1.07029 -1.23415,-1.79794 -2.27283,-1.92114zM130.70068,116.41809l8.24097,28.39197c0.36819,1.26044 1.59134,2.06639 2.89746,1.91589l11.02295,-1.30701c2.236,-0.39238 4.41548,0.44268 5.82642,2.04712l-40.14978,11.66333c0.34131,-2.11506 1.76489,-4.00203 3.95251,-4.91309l9.87341,-4.73987c1.18519,-0.56706 1.78274,-1.90997 1.41724,-3.17041l-8.24621,-28.38672zM42.51709,117.7356l2.67175,0.2677h0.00525l2.67175,0.2677l-2.94995,29.41553c-0.13169,1.30612 0.69988,2.51672 1.96838,2.86072l10.70801,2.90271c2.21987,0.47569 3.92795,2.05762 4.64014,4.07324l-41.59326,-4.16772c1.10456,-1.83556 3.12791,-3.05686 5.50098,-3.08643l10.92847,-0.70862c1.3115,-0.08331 2.36685,-1.10049 2.49853,-2.4093z"></path></g></g></svg>