<svg xmlns="http://www.w3.org/2000/svg" x="0px" y="0px"
width="40" height="40"
viewBox="0 0 226 226"
style=" fill:#000000;"><g fill="none" fill-rule="nonzero" stroke="none" stroke-width="1" stroke-linecap="butt" stroke-linejoin="miter" stroke-miterlimit="10" stroke-dasharray="" stroke-dashoffset="0" font-family="none" font-weight="none" font-size="none" text-anchor="none" style="mix-blend-mode: normal"><path d="M0,226v-226h226v226z" fill="none"></path><g fill="#f1c40f"><g id="surface1"><path d="M79.1,36.16c-43.62859,0 -79.1,35.47141 -79.1,79.1c0,43.62859 35.47141,79.1 79.1,79.1c12.1475,0 23.73,-2.71906 34.04125,-7.6275c10.24063,4.85547 21.68187,7.6275 33.75875,7.6275c43.62859,0 79.1,-35.47141 79.1,-79.1c0,-43.62859 -35.47141,-79.1 -79.1,-79.1c-12.1475,0 -23.74766,2.71906 -34.04125,7.6275c-10.24062,-4.85547 -21.68187,-7.6275 -33.75875,-7.6275zM79.1,45.2c11.67078,0 22.68828,2.87797 32.34625,7.91c0.14125,0.05297 0.2825,0.10594 0.42375,0.14125c8.22781,4.34344 15.44922,10.25828 21.32875,17.37375c0.2825,0.54734 0.67094,1.02406 1.13,1.4125c9.30484,11.90031 14.83125,26.90813 14.83125,43.2225c0,15.5375 -5.03203,29.78609 -13.56,41.38625c-6.09141,-1.64203 -11.68844,-4.53766 -16.385,-8.475c7.38031,-8.96938 11.865,-20.39297 11.865,-32.91125c0,-13.33047 -5.13797,-25.38969 -13.41875,-34.60625c0,-0.05297 0,-0.08828 0,-0.14125c-0.40609,-1.58906 -1.65969,-2.84266 -3.24875,-3.24875c-6.85063,-6.37391 -15.36094,-11.05281 -24.86,-12.995c-0.08828,-0.01766 -0.19422,0.01766 -0.2825,0c-3.30172,-0.65328 -6.69172,-0.98875 -10.17,-0.98875c-28.65609,0 -51.98,23.32391 -51.98,51.98c0,28.65609 23.32391,51.98 51.98,51.98c2.64844,0 5.22625,-0.30016 7.76875,-0.70625c4.74953,5.54406 10.15234,10.48781 16.24375,14.54875c-7.46859,2.73672 -15.55516,4.2375 -24.0125,4.2375c-38.75547,0 -70.06,-31.30453 -70.06,-70.06c0,-38.75547 31.30453,-70.06 70.06,-70.06zM146.9,45.2c38.75547,0 70.06,31.30453 70.06,70.06c0,38.75547 -31.30453,70.06 -70.06,70.06c-11.67078,0 -22.68828,-2.87797 -32.34625,-7.91c-0.14125,-0.05297 -0.2825,-0.10594 -0.42375,-0.14125c-7.73344,-4.07859 -14.53109,-9.55203 -20.19875,-16.1025c-0.17656,-1.73031 -1.32422,-3.21344 -2.96625,-3.81375c-8.82812,-11.72375 -14.125,-26.25484 -14.125,-42.0925c0,-15.5375 5.03203,-29.78609 13.56,-41.38625c6.09141,1.64203 11.68844,4.53766 16.385,8.475c-7.38031,8.96938 -11.865,20.41062 -11.865,32.91125c0,13.33047 5.13797,25.38969 13.41875,34.60625c0.01766,0.01766 -0.01766,0.12359 0,0.14125c0.40609,1.58906 1.65969,2.84266 3.24875,3.24875c6.85062,6.37391 15.36094,11.05281 24.86,12.995c0.08828,0 0.19422,0 0.2825,0c3.30172,0.65328 6.69172,0.98875 10.17,0.98875c28.65609,0 51.98,-23.32391 51.98,-51.98c0,-28.65609 -23.32391,-51.98 -51.98,-51.98c-2.63078,0 -5.24391,0.21187 -7.76875,0.565c-4.73188,-5.50875 -10.17,-10.36422 -16.24375,-14.4075c7.46859,-2.73672 15.55516,-4.2375 24.0125,-4.2375zM79.1,72.32c0.47672,0 0.93578,0.12359 1.4125,0.14125c-7.98062,12.34172 -12.7125,27.01406 -12.7125,42.79875c0,15.82 4.69656,30.56297 12.7125,42.94c-0.45906,0.01766 -0.93578,0 -1.4125,0c-23.76531,0 -42.94,-19.17469 -42.94,-42.94c0,-23.76531 19.17469,-42.94 42.94,-42.94zM145.4875,72.32c0.47672,-0.01766 0.93578,0 1.4125,0c23.76531,0 42.94,19.17469 42.94,42.94c0,23.76531 -19.17469,42.94 -42.94,42.94c-0.47672,0 -0.93578,-0.12359 -1.4125,-0.14125c7.98063,-12.34172 12.7125,-27.01406 12.7125,-42.79875c0,-15.82 -4.69656,-30.56297 -12.7125,-42.94zM113,88.9875c5.61469,7.25672 9.04,16.34969 9.04,26.2725c0,9.92281 -3.39,18.99812 -9.04,26.2725c-5.61469,-7.25672 -9.04,-16.34969 -9.04,-26.2725c0,-9.92281 3.39,-18.99813 9.04,-26.2725z"></path></g></g></g></svg>